<svg width="60" height="48" viewBox="0 0 60 48" fill="none" xmlns="http://www.w3.org/2000/svg">
<path d="M47.3433 3.83564C48.2245 2.95437 48.2245 1.52934 47.3433 0.657443C46.462 -0.214454 45.0369 -0.223829 44.165 0.657443L35.9053 8.89827C35.024 9.77954 35.024 11.2046 35.9053 12.0765C36.7866 12.9484 38.2117 12.9577 39.0836 12.0765L47.3339 3.82627L47.3433 3.83564ZM28.6394 2.55124C28.0581 1.96997 27.1018 1.96997 26.5206 2.55124L25.4518 3.61064C21.936 7.12635 21.936 12.8265 25.4518 16.3422L26.4268 17.3172L23.5673 20.1767C23.2486 17.6172 22.1141 15.1328 20.1453 13.164L19.0859 12.1046C18.5046 11.5233 17.5483 11.5233 16.9671 12.1046L15.9077 13.164C12.3919 16.6797 12.3919 22.3798 15.9077 25.8956L16.8827 26.8706L14.0232 29.73C13.7044 27.1706 12.57 24.6862 10.6012 22.7174L9.54178 21.6486C8.96051 21.0673 8.00422 21.0673 7.42295 21.6486L6.36353 22.708C2.84777 26.2237 2.84777 31.9238 6.36353 35.4395L7.33857 36.4146L0.878941 42.8741C-0.29298 44.046 -0.29298 45.9492 0.878941 47.1211C2.05086 48.293 3.95406 48.293 5.12598 47.1211L11.5856 40.6615L12.7294 41.8053C16.2452 45.321 21.9454 45.321 25.4612 41.8053L26.5206 40.7459C27.1018 40.1647 27.1018 39.2084 26.5206 38.6271L25.4612 37.5677C23.4173 35.5239 20.811 34.3708 18.139 34.1083L21.1297 31.1176L22.2735 32.2613C24.383 34.3708 27.2706 35.2145 29.9988 34.7926C29.9988 34.6989 29.9988 34.5958 29.9988 34.502C29.9988 31.3988 30.852 28.4925 32.3427 26.0081C30.8895 25.1924 29.2957 24.7143 27.6737 24.5549L30.6645 21.5642L31.8083 22.708C32.3708 23.2705 32.9896 23.7486 33.6552 24.133C36.2334 20.9454 39.9648 18.7423 44.2119 18.1516C43.8275 17.7954 43.4244 17.4672 43.0025 17.1672L47.3433 12.8359C48.2245 11.9546 48.2245 10.5296 47.3433 9.65766C46.462 8.78577 45.0369 8.77639 44.165 9.65766L38.596 15.2265C36.6647 14.814 34.6584 14.8797 32.7552 15.4234C33.3271 13.4265 33.374 11.3171 32.8864 9.3014L38.3429 3.83564C39.2242 2.95437 39.2242 1.52934 38.3429 0.657443C37.4616 -0.214454 36.0366 -0.223829 35.1647 0.657443L30.852 4.9513C30.5051 4.48254 30.1207 4.03252 29.6894 3.61064L28.6394 2.55124ZM46.4995 47.993C50.08 47.993 53.5139 46.5706 56.0458 44.0388C58.5776 41.507 60 38.0731 60 34.4926C60 30.9121 58.5776 27.4783 56.0458 24.9465C53.5139 22.4147 50.08 20.9923 46.4995 20.9923C42.9189 20.9923 39.485 22.4147 36.9532 24.9465C34.4213 27.4783 32.9989 30.9121 32.9989 34.4926C32.9989 38.0731 34.4213 41.507 36.9532 44.0388C39.485 46.5706 42.9189 47.993 46.4995 47.993ZM46.4995 38.9927C47.0962 38.9927 47.6686 39.2298 48.0905 39.6518C48.5125 40.0737 48.7496 40.6461 48.7496 41.2428C48.7496 41.8396 48.5125 42.4119 48.0905 42.8338C47.6686 43.2558 47.0962 43.4929 46.4995 43.4929C45.9027 43.4929 45.3304 43.2558 44.9084 42.8338C44.4865 42.4119 44.2494 41.8396 44.2494 41.2428C44.2494 40.6461 44.4865 40.0737 44.9084 39.6518C45.3304 39.2298 45.9027 38.9927 46.4995 38.9927ZM46.4995 25.4924C47.3245 25.4924 47.9995 26.1674 47.9995 26.9925V34.4926C47.9995 35.3177 47.3245 35.9927 46.4995 35.9927C45.6744 35.9927 44.9994 35.3177 44.9994 34.4926V26.9925C44.9994 26.1674 45.6744 25.4924 46.4995 25.4924Z" fill="white"/>
</svg>
