<svg width="48" height="43" viewBox="0 0 48 43" fill="none" xmlns="http://www.w3.org/2000/svg">
<path d="M43.2 4.77778H35.592L31.2 0H16.8L12.408 4.77778H4.8C3.52696 4.77778 2.30606 5.28115 1.40589 6.17716C0.505713 7.07316 0 8.28841 0 9.55556V38.2222C0 39.4894 0.505713 40.7046 1.40589 41.6006C2.30606 42.4966 3.52696 43 4.8 43H43.2C44.473 43 45.6939 42.4966 46.5941 41.6006C47.4943 40.7046 48 39.4894 48 38.2222V9.55556C48 8.28841 47.4943 7.07316 46.5941 6.17716C45.6939 5.28115 44.473 4.77778 43.2 4.77778ZM43.2 38.2222H4.8V9.55556H14.52L18.912 4.77778H29.088L33.48 9.55556H43.2V38.2222ZM24 11.9444C20.8174 11.9444 17.7652 13.2029 15.5147 15.4429C13.2643 17.6829 12 20.721 12 23.8889C12 27.0568 13.2643 30.0949 15.5147 32.3349C17.7652 34.5749 20.8174 35.8333 24 35.8333C27.1826 35.8333 30.2348 34.5749 32.4853 32.3349C34.7357 30.0949 36 27.0568 36 23.8889C36 20.721 34.7357 17.6829 32.4853 15.4429C30.2348 13.2029 27.1826 11.9444 24 11.9444ZM24 31.0556C22.0904 31.0556 20.2591 30.3005 18.9088 28.9565C17.5586 27.6125 16.8 25.7896 16.8 23.8889C16.8 21.9882 17.5586 20.1653 18.9088 18.8213C20.2591 17.4773 22.0904 16.7222 24 16.7222C25.9096 16.7222 27.7409 17.4773 29.0912 18.8213C30.4414 20.1653 31.2 21.9882 31.2 23.8889C31.2 25.7896 30.4414 27.6125 29.0912 28.9565C27.7409 30.3005 25.9096 31.0556 24 31.0556Z" fill="#02020B"/>
</svg>
